<?xml version="1.0" encoding="utf-8"?>
<!-- Generator: Adobe Illustrator 24.1.0, SVG Export Plug-In . SVG Version: 6.00 Build 0)  -->
<svg version="1.1" id="Capa_1" xmlns="http://www.w3.org/2000/svg" xmlns:xlink="http://www.w3.org/1999/xlink" x="0px" y="0px"
	 viewBox="0 0 168.3 147.8" style="enable-background:new 0 0 168.3 147.8;" xml:space="preserve">
<style type="text/css">
	.st0{fill:#7E1012;}
	.st1{fill:#FFFFFF;}
</style>
<path class="st0" d="M155.8,50c0,4.2-0.7,8.3-2.1,12.2c-5.4,24.3-49.3,57.4-69.6,70.7c-20.3-13.3-64.2-46.4-69.8-71.3
	c-1.2-3.8-1.9-7.7-1.9-11.6c0-13.8,7.5-26.4,19.5-33.1c5.6-3.1,11.9-4.7,18.3-4.7c11.3,0,21.9,5,29.1,13.7l4.8,5.8l4.8-5.8
	c11.7-13.8,31.4-17.5,47.3-9C148.3,23.6,155.8,36.3,155.8,50z"/>
<path class="st1" d="M142.3,6c21.1,11.6,31,36.6,23.5,59.5c-7.9,35.5-75.5,78.3-78.3,80.1l-3.3,2.1l-3.3-2.1
	C78,143.9,10.4,101.1,2.3,65C0.8,60.2,0,55.1,0,50.1C0,31.7,10,14.9,26,6C44.7-4.2,68.8-1.1,84.1,13C99.5-1.1,123.7-4.2,142.3,6z
	 M153.8,62.3c1.3-3.9,2-8.1,2.1-12.2c0-13.8-7.5-26.5-19.5-33.1c-15.9-8.5-35.6-4.8-47.3,9l-4.8,5.8l-4.8-5.8
	c-7.2-8.7-17.9-13.7-29.1-13.7c-6.4,0-12.7,1.6-18.3,4.7c-12,6.7-19.5,19.3-19.5,33.1c0,4,0.6,7.9,1.9,11.6
	c5.5,24.9,49.5,58,69.8,71.3C104.4,119.7,148.4,86.6,153.8,62.3L153.8,62.3z"/>
</svg>
