<?xml version="1.0" encoding="utf-8"?>
<!-- Generator: Adobe Illustrator 24.1.0, SVG Export Plug-In . SVG Version: 6.00 Build 0)  -->
<svg version="1.1" id="Capa_1" xmlns="http://www.w3.org/2000/svg" xmlns:xlink="http://www.w3.org/1999/xlink" x="0px" y="0px"
	 viewBox="0 0 168.3 147.8" style="enable-background:new 0 0 168.3 147.8;" xml:space="preserve">
<style type="text/css">
	.st0{fill:#FFFFFF;}
</style>
<path class="st0" d="M142.3,6C123.7-4.2,99.5-1.1,84.1,13C68.8-1.1,44.7-4.2,26,6c-16,8.8-26,25.7-26,44C0,55.1,0.8,60.2,2.3,65
	c8,36.1,75.6,78.9,78.5,80.7l3.3,2.1l3.3-2.1c2.9-1.8,70.5-44.6,78.3-80.1C173.3,42.7,163.4,17.6,142.3,6L142.3,6z M153.8,62.3
	c-5.4,24.3-49.3,57.4-69.6,70.7c-20.3-13.3-64.2-46.4-69.8-71.3c-1.2-3.8-1.9-7.7-1.9-11.6c0-13.8,7.5-26.4,19.5-33.1
	c5.6-3.1,11.9-4.7,18.3-4.7c11.3,0,21.9,5,29.1,13.7l4.8,5.8l4.8-5.8c11.7-13.8,31.4-17.5,47.3-9c12.1,6.6,19.5,19.3,19.5,33.1
	C155.8,54.2,155.1,58.3,153.8,62.3z"/>
</svg>
