<?xml version="1.0" encoding="utf-8"?>
<!-- Generator: Adobe Illustrator 24.1.0, SVG Export Plug-In . SVG Version: 6.00 Build 0)  -->
<svg version="1.1" id="Capa_1" xmlns="http://www.w3.org/2000/svg" xmlns:xlink="http://www.w3.org/1999/xlink" x="0px" y="0px"
	 viewBox="0 0 186.7 164" style="enable-background:new 0 0 186.7 164;" xml:space="preserve">
<style type="text/css">
	.st0{fill:#FFFFFF;}
</style>
<path class="st0" d="M151.6,14C133,3.8,108.8,6.9,93.4,21C78.1,6.9,54,3.8,35.3,14c-16,8.8-26,25.7-26,44c0,5.1,0.8,10.2,2.3,15
	c8,36.1,75.6,78.9,78.5,80.7l3.3,2.1l3.3-2.1c2.9-1.8,70.5-44.6,78.3-80.1C182.6,50.7,172.7,25.6,151.6,14L151.6,14z M163.1,70.3
	c-5.4,24.3-49.3,57.4-69.6,70.7c-20.3-13.3-64.2-46.4-69.8-71.3c-1.2-3.8-1.9-7.7-1.9-11.6c0-13.8,7.5-26.4,19.5-33.1
	c5.6-3.1,11.9-4.7,18.3-4.7c11.3,0,21.9,5,29.1,13.7l4.8,5.8l4.8-5.8c11.7-13.8,31.4-17.5,47.3-9c12.1,6.6,19.5,19.3,19.5,33.1
	C165.1,62.2,164.4,66.3,163.1,70.3z"/>
</svg>
